<svg viewBox="0 0 10 10" fill="none" xmlns="http://www.w3.org/2000/svg">
    <path fill-rule="evenodd" clip-rule="evenodd" d="M5.46875 0.982143C5.46875 0.854271 5.41936 0.731636 5.33146 0.641216C5.24355 0.550797 5.12432 0.5 5 0.5C4.87568 0.5 4.75645 0.550797 4.66854 0.641216C4.58064 0.731636 4.53125 0.854271 4.53125 0.982143V1.30357C4.53125 1.43144 4.58064 1.55408 4.66854 1.6445C4.75645 1.73492 4.87568 1.78571 5 1.78571C5.12432 1.78571 5.24355 1.73492 5.33146 1.6445C5.41936 1.55408 5.46875 1.43144 5.46875 1.30357V0.982143ZM5 2.42857C5.12432 2.42857 5.24355 2.47937 5.33146 2.56979C5.41936 2.66021 5.46875 2.78284 5.46875 2.91071V3.23214C5.46875 3.36002 5.41936 3.48265 5.33146 3.57307C5.24355 3.66349 5.12432 3.71429 5 3.71429C4.87568 3.71429 4.75645 3.66349 4.66854 3.57307C4.58064 3.48265 4.53125 3.36002 4.53125 3.23214V2.91071C4.53125 2.78284 4.58064 2.66021 4.66854 2.56979C4.75645 2.47937 4.87568 2.42857 5 2.42857ZM5.46875 4.83929C5.46875 4.71141 5.41936 4.58878 5.33146 4.49836C5.24355 4.40794 5.12432 4.35714 5 4.35714C4.87568 4.35714 4.75645 4.40794 4.66854 4.49836C4.58064 4.58878 4.53125 4.71141 4.53125 4.83929V5.16071C4.53125 5.28859 4.58064 5.41122 4.66854 5.50164C4.75645 5.59206 4.87568 5.64286 5 5.64286C5.12432 5.64286 5.24355 5.59206 5.33146 5.50164C5.41936 5.41122 5.46875 5.28859 5.46875 5.16071V4.83929ZM5 6.28571C5.12432 6.28571 5.24355 6.33651 5.33146 6.42693C5.41936 6.51735 5.46875 6.63998 5.46875 6.76786V7.08929C5.46875 7.21716 5.41936 7.33979 5.33146 7.43021C5.24355 7.52063 5.12432 7.57143 5 7.57143C4.87568 7.57143 4.75645 7.52063 4.66854 7.43021C4.58064 7.33979 4.53125 7.21716 4.53125 7.08929V6.76786C4.53125 6.63998 4.58064 6.51735 4.66854 6.42693C4.75645 6.33651 4.87568 6.28571 5 6.28571ZM5 8.21429C5.12432 8.21429 5.24355 8.26508 5.33146 8.3555C5.41936 8.44592 5.46875 8.56856 5.46875 8.69643V9.01786C5.46875 9.14573 5.41936 9.26836 5.33146 9.35878C5.24355 9.4492 5.12432 9.5 5 9.5C4.87568 9.5 4.75645 9.4492 4.66854 9.35878C4.58064 9.26836 4.53125 9.14573 4.53125 9.01786V8.69643C4.53125 8.56856 4.58064 8.44592 4.66854 8.3555C4.75645 8.26508 4.87568 8.21429 5 8.21429ZM9.71687 1.82493C9.80098 1.86223 9.87261 1.92406 9.92293 2.00278C9.97324 2.0815 10 2.17365 10 2.26786V7.73214C9.99997 7.82632 9.97313 7.91843 9.92279 7.99709C9.87245 8.07575 9.80081 8.13753 9.71672 8.17479C9.63263 8.21205 9.53978 8.22317 9.44961 8.20677C9.35945 8.19037 9.27594 8.14717 9.20937 8.0825L6.39687 5.35036C6.35053 5.3053 6.31362 5.25098 6.28839 5.19074C6.26316 5.1305 6.25015 5.06559 6.25015 5C6.25015 4.93441 6.26316 4.8695 6.28839 4.80926C6.31362 4.74902 6.35053 4.6947 6.39687 4.64964L9.20937 1.9175C9.27592 1.85275 9.35945 1.80948 9.44964 1.79303C9.53984 1.77658 9.63274 1.78767 9.71687 1.82493V1.82493ZM7.40125 5L9.0625 6.61357V3.38643L7.40125 5ZM0 7.73214C2.79901e-05 7.82632 0.02687 7.91843 0.0772118 7.99709C0.127554 8.07575 0.199191 8.13753 0.283279 8.17479C0.367367 8.21205 0.460224 8.22317 0.550385 8.20677C0.640546 8.19037 0.724063 8.14717 0.790625 8.0825L3.60312 5.35036C3.64947 5.3053 3.68638 5.25098 3.71161 5.19074C3.73684 5.1305 3.74985 5.06559 3.74985 5C3.74985 4.93441 3.73684 4.8695 3.71161 4.80926C3.68638 4.74902 3.64947 4.6947 3.60312 4.64964L0.790625 1.9175C0.724063 1.85283 0.640546 1.80963 0.550385 1.79323C0.460224 1.77683 0.367367 1.78795 0.283279 1.82521C0.199191 1.86247 0.127554 1.92425 0.0772118 2.00291C0.02687 2.08158 2.79901e-05 2.17368 0 2.26786L0 7.73214ZM0.9375 3.38643L2.59875 5L0.9375 6.61357V3.38643Z" fill="currentColor"/>
</svg>
