<svg width="20" height="22" viewBox="0 0 10 11" fill="none" xmlns="http://www.w3.org/2000/svg">
    <path fill-rule="evenodd" clip-rule="evenodd" d="M9.01786 5.96875C9.14573 5.96875 9.26836 5.91936 9.35878 5.83146C9.4492 5.74355 9.5 5.62432 9.5 5.5C9.5 5.37568 9.4492 5.25645 9.35878 5.16854C9.26836 5.08064 9.14573 5.03125 9.01786 5.03125L8.69643 5.03125C8.56856 5.03125 8.44592 5.08064 8.3555 5.16854C8.26508 5.25645 8.21429 5.37568 8.21429 5.5C8.21429 5.62432 8.26508 5.74355 8.3555 5.83146C8.44592 5.91936 8.56856 5.96875 8.69643 5.96875L9.01786 5.96875ZM7.57143 5.5C7.57143 5.62432 7.52063 5.74355 7.43021 5.83146C7.33979 5.91936 7.21716 5.96875 7.08929 5.96875L6.76786 5.96875C6.63998 5.96875 6.51735 5.91936 6.42693 5.83146C6.33651 5.74355 6.28571 5.62432 6.28571 5.5C6.28571 5.37568 6.33651 5.25645 6.42693 5.16854C6.51735 5.08064 6.63998 5.03125 6.76786 5.03125L7.08929 5.03125C7.21716 5.03125 7.33979 5.08064 7.43021 5.16854C7.52063 5.25645 7.57143 5.37568 7.57143 5.5ZM5.16071 5.96875C5.28859 5.96875 5.41122 5.91936 5.50164 5.83146C5.59206 5.74355 5.64286 5.62432 5.64286 5.5C5.64286 5.37568 5.59206 5.25645 5.50164 5.16854C5.41122 5.08064 5.28859 5.03125 5.16071 5.03125L4.83929 5.03125C4.71141 5.03125 4.58878 5.08064 4.49836 5.16854C4.40794 5.25645 4.35714 5.37568 4.35714 5.5C4.35714 5.62432 4.40794 5.74355 4.49836 5.83146C4.58878 5.91936 4.71141 5.96875 4.83929 5.96875L5.16071 5.96875ZM3.71429 5.5C3.71429 5.62432 3.66349 5.74355 3.57307 5.83146C3.48265 5.91936 3.36002 5.96875 3.23214 5.96875L2.91071 5.96875C2.78284 5.96875 2.66021 5.91936 2.56979 5.83146C2.47937 5.74355 2.42857 5.62432 2.42857 5.5C2.42857 5.37568 2.47937 5.25645 2.56979 5.16854C2.66021 5.08064 2.78284 5.03125 2.91071 5.03125L3.23214 5.03125C3.36002 5.03125 3.48265 5.08064 3.57307 5.16854C3.66349 5.25645 3.71429 5.37568 3.71429 5.5ZM1.78571 5.5C1.78571 5.62432 1.73492 5.74355 1.6445 5.83146C1.55408 5.91936 1.43144 5.96875 1.30357 5.96875L0.982143 5.96875C0.854271 5.96875 0.731636 5.91936 0.641216 5.83146C0.550797 5.74355 0.5 5.62432 0.5 5.5C0.5 5.37568 0.550797 5.25645 0.641216 5.16854C0.731636 5.08064 0.854271 5.03125 0.982143 5.03125L1.30357 5.03125C1.43144 5.03125 1.55408 5.08064 1.6445 5.16854C1.73492 5.25645 1.78571 5.37568 1.78571 5.5ZM8.17507 10.2169C8.13777 10.301 8.07594 10.3726 7.99722 10.4229C7.9185 10.4732 7.82635 10.5 7.73214 10.5L2.26786 10.5C2.17368 10.5 2.08157 10.4731 2.00291 10.4228C1.92425 10.3724 1.86247 10.3008 1.82521 10.2167C1.78794 10.1326 1.77683 10.0398 1.79323 9.94961C1.80963 9.85945 1.85283 9.77594 1.9175 9.70937L4.64964 6.89687C4.6947 6.85053 4.74902 6.81362 4.80926 6.78839C4.8695 6.76316 4.93441 6.75015 5 6.75015C5.06559 6.75015 5.1305 6.76316 5.19074 6.78839C5.25098 6.81362 5.3053 6.85053 5.35036 6.89687L8.0825 9.70937C8.14725 9.77592 8.19052 9.85945 8.20697 9.94964C8.22342 10.0398 8.21233 10.1327 8.17507 10.2169ZM5 7.90125L3.38643 9.5625L6.61357 9.5625L5 7.90125ZM2.26786 0.5C2.17368 0.500028 2.08157 0.52687 2.00291 0.577211C1.92425 0.627553 1.86247 0.699191 1.82521 0.783279C1.78795 0.867367 1.77683 0.960224 1.79323 1.05038C1.80963 1.14055 1.85283 1.22406 1.9175 1.29062L4.64964 4.10312C4.6947 4.14947 4.74902 4.18638 4.80926 4.21161C4.8695 4.23684 4.93441 4.24985 5 4.24985C5.06559 4.24985 5.1305 4.23684 5.19074 4.21161C5.25098 4.18638 5.3053 4.14947 5.35036 4.10312L8.0825 1.29062C8.14717 1.22406 8.19037 1.14055 8.20677 1.05039C8.22317 0.960224 8.21205 0.867367 8.17479 0.783279C8.13753 0.699191 8.07575 0.627554 7.99709 0.577212C7.91842 0.52687 7.82632 0.500028 7.73214 0.5L2.26786 0.5ZM6.61357 1.4375L5 3.09875L3.38643 1.4375L6.61357 1.4375Z" fill="currentColor"/>
</svg>
