<svg width="20" height="18" viewBox="0 0 10 9" fill="none" xmlns="http://www.w3.org/2000/svg">
    <path fill-rule="evenodd" clip-rule="evenodd" d="M5.46875 0.482143C5.46875 0.354271 5.41936 0.231636 5.33146 0.141216C5.24355 0.0507971 5.12432 0 5 0C4.87568 0 4.75645 0.0507971 4.66854 0.141216C4.58064 0.231636 4.53125 0.354271 4.53125 0.482143V0.803571C4.53125 0.931444 4.58064 1.05408 4.66854 1.1445C4.75645 1.23492 4.87568 1.28571 5 1.28571C5.12432 1.28571 5.24355 1.23492 5.33146 1.1445C5.41936 1.05408 5.46875 0.931444 5.46875 0.803571V0.482143ZM5 1.92857C5.12432 1.92857 5.24355 1.97937 5.33146 2.06979C5.41936 2.16021 5.46875 2.28284 5.46875 2.41071V2.73214C5.46875 2.86002 5.41936 2.98265 5.33146 3.07307C5.24355 3.16349 5.12432 3.21429 5 3.21429C4.87568 3.21429 4.75645 3.16349 4.66854 3.07307C4.58064 2.98265 4.53125 2.86002 4.53125 2.73214V2.41071C4.53125 2.28284 4.58064 2.16021 4.66854 2.06979C4.75645 1.97937 4.87568 1.92857 5 1.92857ZM5.46875 4.33929C5.46875 4.21141 5.41936 4.08878 5.33146 3.99836C5.24355 3.90794 5.12432 3.85714 5 3.85714C4.87568 3.85714 4.75645 3.90794 4.66854 3.99836C4.58064 4.08878 4.53125 4.21141 4.53125 4.33929V4.66071C4.53125 4.78859 4.58064 4.91122 4.66854 5.00164C4.75645 5.09206 4.87568 5.14286 5 5.14286C5.12432 5.14286 5.24355 5.09206 5.33146 5.00164C5.41936 4.91122 5.46875 4.78859 5.46875 4.66071V4.33929ZM5 5.78571C5.12432 5.78571 5.24355 5.83651 5.33146 5.92693C5.41936 6.01735 5.46875 6.13998 5.46875 6.26786V6.58929C5.46875 6.71716 5.41936 6.83979 5.33146 6.93021C5.24355 7.02063 5.12432 7.07143 5 7.07143C4.87568 7.07143 4.75645 7.02063 4.66854 6.93021C4.58064 6.83979 4.53125 6.71716 4.53125 6.58929V6.26786C4.53125 6.13998 4.58064 6.01735 4.66854 5.92693C4.75645 5.83651 4.87568 5.78571 5 5.78571ZM5 7.71429C5.12432 7.71429 5.24355 7.76508 5.33146 7.8555C5.41936 7.94592 5.46875 8.06856 5.46875 8.19643V8.51786C5.46875 8.64573 5.41936 8.76836 5.33146 8.85878C5.24355 8.9492 5.12432 9 5 9C4.87568 9 4.75645 8.9492 4.66854 8.85878C4.58064 8.76836 4.53125 8.64573 4.53125 8.51786V8.19643C4.53125 8.06856 4.58064 7.94592 4.66854 7.8555C4.75645 7.76508 4.87568 7.71429 5 7.71429ZM9.71688 1.32493C9.80098 1.36223 9.87261 1.42406 9.92293 1.50278C9.97324 1.5815 10 1.67365 10 1.76786V7.23214C9.99997 7.32632 9.97313 7.41843 9.92279 7.49709C9.87245 7.57575 9.80081 7.63753 9.71672 7.67479C9.63263 7.71205 9.53978 7.72317 9.44961 7.70677C9.35945 7.69037 9.27594 7.64717 9.20937 7.5825L6.39687 4.85036C6.35053 4.80529 6.31362 4.75098 6.28839 4.69074C6.26316 4.6305 6.25015 4.56559 6.25015 4.5C6.25015 4.43441 6.26316 4.3695 6.28839 4.30926C6.31362 4.24902 6.35053 4.1947 6.39687 4.14964L9.20937 1.4175C9.27592 1.35275 9.35945 1.30948 9.44965 1.29303C9.53984 1.27658 9.63274 1.28767 9.71688 1.32493ZM7.40125 4.5L9.0625 6.11357V2.88643L7.40125 4.5ZM0 7.23214C2.79901e-05 7.32632 0.02687 7.41843 0.0772118 7.49709C0.127554 7.57575 0.199191 7.63753 0.283279 7.67479C0.367367 7.71205 0.460224 7.72317 0.550385 7.70677C0.640546 7.69037 0.724063 7.64717 0.790625 7.5825L3.60312 4.85036C3.64947 4.80529 3.68638 4.75098 3.71161 4.69074C3.73684 4.6305 3.74985 4.56559 3.74985 4.5C3.74985 4.43441 3.73684 4.3695 3.71161 4.30926C3.68638 4.24902 3.64947 4.1947 3.60312 4.14964L0.790625 1.4175C0.724063 1.35283 0.640546 1.30963 0.550385 1.29323C0.460224 1.27683 0.367367 1.28795 0.283279 1.32521C0.199191 1.36247 0.127554 1.42425 0.0772118 1.50291C0.02687 1.58158 2.79901e-05 1.67368 0 1.76786L0 7.23214ZM0.9375 2.88643L2.59875 4.5L0.9375 6.11357V2.88643Z" fill="currentColor"/>
</svg>
