<svg viewBox="0 0 10 10" fill="none" xmlns="http://www.w3.org/2000/svg">
    <path fill-rule="evenodd" clip-rule="evenodd" d="M9.01786 5.46875C9.14573 5.46875 9.26836 5.41936 9.35878 5.33146C9.4492 5.24355 9.5 5.12432 9.5 5C9.5 4.87568 9.4492 4.75645 9.35878 4.66854C9.26836 4.58064 9.14573 4.53125 9.01786 4.53125L8.69643 4.53125C8.56856 4.53125 8.44592 4.58064 8.3555 4.66854C8.26508 4.75645 8.21429 4.87568 8.21429 5C8.21429 5.12432 8.26508 5.24355 8.3555 5.33146C8.44592 5.41936 8.56856 5.46875 8.69643 5.46875L9.01786 5.46875ZM7.57143 5C7.57143 5.12432 7.52063 5.24355 7.43021 5.33146C7.33979 5.41936 7.21716 5.46875 7.08929 5.46875L6.76786 5.46875C6.63998 5.46875 6.51735 5.41936 6.42693 5.33146C6.33651 5.24355 6.28571 5.12432 6.28571 5C6.28571 4.87568 6.33651 4.75645 6.42693 4.66854C6.51735 4.58064 6.63998 4.53125 6.76786 4.53125L7.08929 4.53125C7.21716 4.53125 7.33979 4.58064 7.43021 4.66854C7.52063 4.75645 7.57143 4.87568 7.57143 5ZM5.16071 5.46875C5.28859 5.46875 5.41122 5.41936 5.50164 5.33146C5.59206 5.24355 5.64286 5.12432 5.64286 5C5.64286 4.87568 5.59206 4.75645 5.50164 4.66854C5.41122 4.58064 5.28859 4.53125 5.16071 4.53125L4.83929 4.53125C4.71141 4.53125 4.58878 4.58064 4.49836 4.66854C4.40794 4.75645 4.35714 4.87568 4.35714 5C4.35714 5.12432 4.40794 5.24355 4.49836 5.33146C4.58878 5.41936 4.71141 5.46875 4.83929 5.46875L5.16071 5.46875ZM3.71429 5C3.71429 5.12432 3.66349 5.24355 3.57307 5.33146C3.48265 5.41936 3.36001 5.46875 3.23214 5.46875L2.91071 5.46875C2.78284 5.46875 2.66021 5.41936 2.56979 5.33146C2.47937 5.24355 2.42857 5.12432 2.42857 5C2.42857 4.87568 2.47937 4.75645 2.56979 4.66854C2.66021 4.58064 2.78284 4.53125 2.91071 4.53125L3.23214 4.53125C3.36001 4.53125 3.48265 4.58064 3.57307 4.66854C3.66349 4.75645 3.71429 4.87568 3.71429 5ZM1.78571 5C1.78571 5.12432 1.73492 5.24355 1.6445 5.33146C1.55408 5.41936 1.43144 5.46875 1.30357 5.46875L0.982143 5.46875C0.85427 5.46875 0.731636 5.41936 0.641217 5.33146C0.550797 5.24355 0.5 5.12432 0.5 5C0.5 4.87568 0.550797 4.75645 0.641217 4.66854C0.731636 4.58064 0.854271 4.53125 0.982143 4.53125L1.30357 4.53125C1.43144 4.53125 1.55408 4.58064 1.6445 4.66854C1.73492 4.75645 1.78571 4.87568 1.78571 5ZM8.17507 9.71687C8.13777 9.80098 8.07594 9.87261 7.99722 9.92293C7.9185 9.97324 7.82635 10 7.73214 10L2.26786 10C2.17368 9.99997 2.08157 9.97313 2.00291 9.92279C1.92425 9.87245 1.86247 9.80081 1.82521 9.71672C1.78794 9.63263 1.77683 9.53978 1.79323 9.44961C1.80963 9.35945 1.85283 9.27594 1.9175 9.20937L4.64964 6.39687C4.6947 6.35053 4.74902 6.31362 4.80926 6.28839C4.8695 6.26316 4.93441 6.25015 5 6.25015C5.06559 6.25015 5.1305 6.26316 5.19074 6.28839C5.25098 6.31362 5.30529 6.35053 5.35036 6.39687L8.0825 9.20937C8.14725 9.27592 8.19052 9.35945 8.20697 9.44964C8.22342 9.53984 8.21233 9.63274 8.17507 9.71687V9.71687ZM5 7.40125L3.38643 9.0625L6.61357 9.0625L5 7.40125ZM2.26786 -3.16127e-07C2.17368 2.76699e-05 2.08157 0.0268696 2.00291 0.0772115C1.92425 0.127553 1.86247 0.199191 1.82521 0.283279C1.78795 0.367367 1.77683 0.460224 1.79323 0.550385C1.80963 0.640546 1.85283 0.724063 1.9175 0.790625L4.64964 3.60312C4.6947 3.64947 4.74902 3.68638 4.80926 3.71161C4.8695 3.73684 4.93441 3.74985 5 3.74985C5.06559 3.74985 5.1305 3.73684 5.19074 3.71161C5.25098 3.68638 5.3053 3.64947 5.35036 3.60312L8.0825 0.790625C8.14717 0.724063 8.19037 0.640546 8.20677 0.550385C8.22317 0.460224 8.21205 0.367367 8.17479 0.283279C8.13753 0.199191 8.07575 0.127554 7.99709 0.0772117C7.91842 0.0268699 7.82632 2.7917e-05 7.73214 -7.72755e-08L2.26786 -3.16127e-07ZM6.61357 0.9375L5 2.59875L3.38643 0.9375L6.61357 0.9375Z" fill="currentColor"/>
</svg>
